<svg id="圖層_1" data-name="圖層 1" xmlns="http://www.w3.org/2000/svg" viewBox="0 0 1355 238"><defs><style>.cls-1{fill:#fff;}</style></defs><path class="cls-1" d="M-.53,81.38l14.66-6.72c4.12,14,13.59,22.6,28.86,22.6,14,0,21.53-6.57,21.69-17C65,71.45,59.79,66,45.59,63.05L32.15,60C15.19,56.33,4.5,48.24,4.5,30.52,4.5,13.57,18.4-.18,41-.18,62.54-.18,75.06,12.5,78.73,25L64.52,31.28c-2.75-8.4-9.31-17.71-24.89-17.71-13.59,0-20,7.48-20,16s4.74,12.82,17.11,15.57l13.44,3.06c19.55,4.27,30.39,14.35,30.39,30.54C80.56,96.65,67.73,111,41.77,111,18.86,111,4.5,98.18-.53,81.38Z"/><path class="cls-1" d="M172.61,2,136.26,63.51v45.36H121V64L83.42,2h18.33L119,32.05c5.34,9.32,6.41,15.88,6.56,23.67H132c.15-7.94,1.37-14.51,6.41-23.82L154.59,2Z"/><path class="cls-1" d="M182.31,108.87V2h22l48,85.53,5.49-3.82c-6.26-10.23-7.94-16-7.94-29.48V2h17.54V108.87H247.83L195.75,16l-5.5,3.52c4.89,9.62,6.87,17.71,6.87,31.91v57.43Z"/><path class="cls-1" d="M345.12,108.87V2h42.3c22.15,0,34.52,12.68,34.52,29,0,18.17-14.51,23.52-27.49,24.28v6.42c15.42.3,21.22,5.95,24.13,20.31l5.34,26.88H407.58L403.3,83.21c-2.44-13.59-9.77-18.63-24.13-18.63H360.24v44.29Zm15.12-57.73H385c12.37,0,21.23-5.5,21.23-17.72,0-12.37-8.86-17.71-20.77-17.71h-25.2Z"/><path class="cls-1" d="M436.21,55.26c0-34.51,20.92-55.44,47.49-55.44,25.66,0,38.34,16,42.92,31.77l-15,5.5c-3.81-12.83-11.91-23.37-28.1-23.37-18,0-31.3,14.81-31.3,41.39,0,28,12.21,42,31,42,17.1,0,27.18-11.91,27.95-27.19H480.35V56.18h46v52.69h-14.2c0-9,2.9-16.19,6.42-22.76h-7c-3.36,11.3-11.61,24.9-32.22,24.9C454.38,111,436.21,91.15,436.21,55.26Z"/><path class="cls-1" d="M616.34,2,580,63.51v45.36H564.72V64L527.16,2h18.32l17.26,30.09c5.34,9.32,6.41,15.88,6.57,23.67h6.41c.15-7.94,1.37-14.51,6.41-23.82L598.32,2Z"/><path class="cls-1" d="M752.44,16.85H692.37V51.06h46.84V64.6H692.37v45h-15V3.16h75.12Z"/><path class="cls-1" d="M853.66,81.72l14.86-6.81c4.18,14.24,13.77,22.9,29.25,22.9,14.24,0,21.82-6.65,22-17.18.31-9-5-14.54-19.35-17.49l-13.62-3.09c-17.18-3.72-28-11.92-28-29.87,0-17.18,14.08-31.11,37-31.11,21.82,0,34.51,12.85,38.23,25.54L919.59,31C916.81,22.44,910.15,13,894.37,13c-13.78,0-20.28,7.59-20.28,16.25s4.8,13,17.34,15.79l13.62,3.09c19.81,4.34,30.79,14.55,30.79,31,0,18.1-13,32.65-39.31,32.65C873.32,111.74,858.77,98.74,853.66,81.72Z"/><path class="cls-1" d="M1029.09,3.16V16.85h-36.5v92.76H977.54V16.85H942V3.16Z"/><path class="cls-1" d="M1085.51,16.7h-14.75V96.08h14.75v13.53h-43.64V96.08H1056V16.7h-14.14V3.16h43.64Z"/><path class="cls-1" d="M1129.55,109.61,1096.7,3.16h16.73l20.83,71c2.74,9.58,3,15.81,3.35,23.27h6.23A97,97,0,0,1,1148,73l21-69.8h16.28l-33.16,106.45Z"/><path class="cls-1" d="M1252.12,109.61l-8.83-28.44h-41.36l-9,28.44h-15.82L1212.58,3.16h21.13l34.68,106.45Zm-45.93-42.12H1239l-8.82-28.59A93.69,93.69,0,0,1,1226,13.81h-6.39a87.59,87.59,0,0,1-4.41,25.09Z"/><path class="cls-1" d="M1299.49,95.62h56v14h-71V3.16h15Z"/><rect class="cls-1" x="763.93" y="92.85" width="81.67" height="14.26"/><rect class="cls-1" x="771.68" y="46.56" width="66.17" height="14.26"/><rect class="cls-1" x="766.71" y="3.08" width="76.11" height="14.26"/><rect class="cls-1" x="257.3" y="1.96" width="73.31" height="13.75"/><rect class="cls-1" x="257.3" y="46.6" width="57.58" height="13.7"/><rect class="cls-1" x="257.3" y="95.16" width="73.31" height="13.7"/><path class="cls-1" d="M7.84,235.64V221.89c24.38-15,44.51-29.51,44.51-47,0-11.38-7.13-17.26-15.88-17.26-9.5,0-16.75,6.88-16.75,19.26L7.09,175.13c.13-16.63,11.25-28.76,29.51-28.76s28.88,11.5,28.88,27.13a36.81,36.81,0,0,1-9.13,24.38c-7.5,8.63-20.88,17.13-38.26,26.88l3.13,4.75c4.5-3.12,9.38-5.5,18.63-5.5H66.48v11.63Z"/><path class="cls-1" d="M79.6,191.88c0-27.51,11.63-45.51,32.26-45.51s32,18,32,45.51-11.38,45.51-32,45.51S79.6,219.51,79.6,191.88Zm51.51,0c0-19.63-4.62-34.26-19.37-34.26s-19.38,14.63-19.38,34.26,4.62,34.26,19.38,34.26S131.11,211.51,131.11,191.88Z"/><path class="cls-1" d="M157.37,235.64V221.89c24.38-15,44.51-29.51,44.51-47,0-11.38-7.13-17.26-15.88-17.26-9.5,0-16.76,6.88-16.76,19.26l-12.62-1.75c.12-16.63,11.25-28.76,29.5-28.76S215,157.87,215,173.5a36.86,36.86,0,0,1-9.12,24.38c-7.5,8.63-20.88,17.13-38.26,26.88l3.12,4.75c4.51-3.12,9.38-5.5,18.63-5.5H216v11.63Z"/><path class="cls-1" d="M232.13,235.64V221.89c24.38-15,44.51-29.51,44.51-47,0-11.38-7.13-17.26-15.88-17.26-9.5,0-16.75,6.88-16.75,19.26l-12.63-1.75c.13-16.63,11.25-28.76,29.51-28.76s28.88,11.5,28.88,27.13a36.81,36.81,0,0,1-9.13,24.38c-7.5,8.63-20.88,17.13-38.26,26.88l3.13,4.75c4.5-3.12,9.37-5.5,18.63-5.5h26.63v11.63Z"/><path class="cls-1" d="M539,191.88c0-27.51,11.62-45.51,32.25-45.51s32,18,32,45.51-11.38,45.51-32,45.51S539,219.51,539,191.88Zm51.51,0c0-19.63-4.63-34.26-19.38-34.26s-19.38,14.63-19.38,34.26,4.62,34.26,19.38,34.26S590.55,211.51,590.55,191.88Z"/><path class="cls-1" d="M612.67,210.63l13.13-2.75c.5,11.38,7.5,18.63,18.13,18.63,9.38,0,16.63-5.63,16.63-15s-7.25-15-17-15h-6.12V185.88h6.12c8.38,0,15.63-5.38,15.63-14.38,0-8.75-6.87-14.25-15.25-14.25-9.5,0-15.38,6.5-16.25,15.63l-12.88-2.25c1.12-13.38,11.63-24.26,29.13-24.26s27.88,10.13,27.88,23c0,12.37-9.5,18.12-19.75,18.87v5c10.87.5,21.38,6.63,21.38,20.26,0,13.25-11,23.88-29.51,23.88C625.68,237.39,613.92,226.89,612.67,210.63Z"/><path class="cls-1" d="M693.31,235.64V216.13h19.26v19.51Z"/><path class="cls-1" d="M769,224.51h22.63v11.13H731.82V224.51H756.7V176.63c0-6.13.62-9.26,2.37-13.76h-5.62c-3.38,9.88-10.5,16.13-20.88,17.51v-13c11-2.37,20.75-8.75,26.38-19.25h10Z"/><path class="cls-1" d="M805.71,234.76V222a45.09,45.09,0,0,0,16.5,3.13c11.63,0,19.88-4.76,24.75-12.63,3.76-6,5.88-15.63,5.76-23.13h-5.13a21.09,21.09,0,0,1-20.5,14.25c-15.88,0-26-11.88-26-26.75,0-16.63,10.63-30.51,29.38-30.51,8.88,0,16.38,3,22.26,9,7,7.13,10.87,18.51,10.87,33.38,0,28.38-13,48.64-40.88,48.64C817.33,237.39,809.83,236.39,805.71,234.76Zm42.5-59.51c0-11-7.5-18-17.12-18-9.38,0-17.13,7-17.13,18S821.71,193,831.09,193C840.71,193,848.21,186.13,848.21,175.25Z"/><path class="cls-1" d="M1023.59,191.88c0-27.51,11.63-45.51,32.26-45.51s32,18,32,45.51-11.37,45.51-32,45.51S1023.59,219.51,1023.59,191.88Zm51.51,0c0-19.63-4.63-34.26-19.38-34.26s-19.38,14.63-19.38,34.26,4.63,34.26,19.38,34.26S1075.1,211.51,1075.1,191.88Z"/><path class="cls-1" d="M1097.23,210.63l13.13-2.75c.5,11.38,7.5,18.63,18.12,18.63,9.38,0,16.63-5.63,16.63-15s-7.25-15-17-15H1122V185.88h6.13c8.38,0,15.63-5.38,15.63-14.38,0-8.75-6.88-14.25-15.26-14.25-9.5,0-15.37,6.5-16.25,15.63l-12.88-2.25c1.13-13.38,11.63-24.26,29.13-24.26s27.89,10.13,27.89,23c0,12.37-9.51,18.12-19.76,18.87v5c10.88.5,21.38,6.63,21.38,20.26,0,13.25-11,23.88-29.51,23.88C1110.23,237.39,1098.48,226.89,1097.23,210.63Z"/><path class="cls-1" d="M1177.87,235.64V216.13h19.25v19.51Z"/><path class="cls-1" d="M1215.5,235.64V221.89c24.38-15,44.51-29.51,44.51-47,0-11.38-7.13-17.26-15.88-17.26-9.5,0-16.75,6.88-16.75,19.26l-12.63-1.75c.12-16.63,11.25-28.76,29.5-28.76s28.88,11.5,28.88,27.13a36.86,36.86,0,0,1-9.12,24.38c-7.5,8.63-20.88,17.13-38.26,26.88l3.13,4.75c4.5-3.12,9.37-5.5,18.62-5.5h26.63v11.63Z"/><path class="cls-1" d="M1284.64,191.88c0-27.51,11.62-45.51,32.25-45.51s32,18,32,45.51-11.38,45.51-32,45.51S1284.64,219.51,1284.64,191.88Zm51.51,0c0-19.63-4.63-34.26-19.38-34.26s-19.38,14.63-19.38,34.26,4.62,34.26,19.38,34.26S1336.15,211.51,1336.15,191.88Z"/><rect class="cls-1" x="897.84" y="184.29" width="96.35" height="9.34"/></svg>