<svg width="589" height="589" viewBox="0 0 589 589" fill="none" xmlns="http://www.w3.org/2000/svg">
<path d="M0 294.17C0 131.73 131.65 0.0200023 294.1 2.27795e-06C456.55 -0.0199977 588.25 131.66 588.27 294.1C588.29 456.54 456.61 588.17 294.17 588.22C131.75 588.22 0.0599933 456.58 0.0399933 294.16L0 294.17Z" fill="#AF6AFF"/>
<path d="M425.353 173.18C400.445 161.71 374.131 153.58 347.093 149C343.369 155.663 340.031 162.535 337.093 169.58C308.339 165.29 279.107 165.29 250.353 169.58C247.283 162.548 243.852 155.679 240.073 149C212.998 153.582 186.654 161.747 161.733 173.28C112.323 246.92 98.9131 318.79 105.603 389.6C134.586 411.14 167.06 427.533 201.603 438.06C209.374 427.525 216.257 416.363 222.183 404.69C210.957 400.494 200.121 395.317 189.803 389.22C192.503 387.18 195.11 385.133 197.623 383.08C227.647 397.278 260.446 404.643 293.658 404.643C326.87 404.643 359.669 397.278 389.693 383.08C392.263 385.21 394.943 387.26 397.613 389.25C387.291 395.378 376.445 400.578 365.203 404.79C371.112 416.449 377.993 427.588 385.773 438.09C420.33 427.597 452.809 411.202 481.773 389.63C489.633 307.56 468.293 236.32 425.353 173.18ZM230.653 346.11C211.923 346.11 196.563 328.96 196.563 307.9C196.563 286.84 211.563 269.56 230.653 269.56C249.743 269.56 264.943 286.7 264.773 307.8C264.603 328.9 249.723 346.11 230.653 346.11ZM356.653 346.11C337.923 346.11 322.563 328.96 322.563 307.9C322.563 286.84 337.563 269.56 356.653 269.56C375.743 269.56 390.953 286.7 390.743 307.8C390.533 328.9 375.763 346.11 356.693 346.11H356.653Z" fill="white"/>
</svg>
