<svg width="528" height="528" viewBox="0 0 528 528" fill="none" xmlns="http://www.w3.org/2000/svg">
<path d="M0 405.92V121.58C0.65 117.9 1.27 114.21 2 110.53C11.12 62.11 38.55 28.2 83.94 9.53C93.43 5.63 103.79 3.85003 114 1.71003C119.423 0.571486 124.949 -0.0016013 130.49 3.36044e-06H392.55C401.363 0.0061173 410.157 0.822894 418.82 2.44001C424.468 3.40867 430.046 4.74484 435.52 6.44001C490.99 24.44 527.29 74.26 527.45 132.77C527.703 220.157 527.703 307.54 527.45 394.92C527.45 422.99 519.64 448.85 503.03 471.57C475.57 509.13 438.22 527.51 391.77 527.52C306.963 527.52 222.157 527.493 137.35 527.44C128.429 527.556 119.514 526.887 110.71 525.44C62 516.55 28 488.84 9.39999 443.11C4.63999 431.38 3.07 418.32 0 405.92ZM263.37 483.21V483.46C306.29 483.46 349.21 483.76 392.13 483.24C402.77 483.11 413.91 481.87 423.93 478.49C461.16 465.93 483.36 433.39 483.39 393.02C483.45 306.827 483.43 220.64 483.33 134.46C483.443 127.434 482.792 120.416 481.39 113.53C472.03 71.86 437.9 44.28 394.69 44.14C307.47 43.85 220.26 44.06 133.04 44.03C119.99 44.03 107.32 46.13 95.62 51.93C61.47 68.87 44.15 96.59 44.1 134.74C44 220.74 44 306.74 44.1 392.74C44.1297 398.567 44.5405 404.386 45.33 410.16C50.42 448.6 87.12 482.44 125.84 483.02C171.72 483.73 217.57 483.21 263.41 483.21H263.37Z" fill="white"/>
<path d="M264.47 131.9C337.47 132.62 396.6 192.44 395.62 264.69C394.62 337.69 335.24 396.32 263.08 395.6C190 394.87 131 335.05 131.94 262.79C132.92 189.79 192.26 131.19 264.47 131.9ZM263.84 351.55C281.212 351.542 298.19 346.381 312.628 336.72C327.065 327.059 338.312 313.333 344.946 297.278C351.58 281.223 353.302 263.561 349.894 246.526C346.486 229.492 338.102 213.852 325.802 201.585C313.503 189.317 297.84 180.974 280.797 177.611C263.754 174.248 246.097 176.016 230.059 182.692C214.022 189.368 200.325 200.651 190.702 215.113C181.079 229.576 175.962 246.568 176 263.94C176.008 275.462 178.287 286.87 182.707 297.511C187.127 308.151 193.601 317.817 201.759 325.953C209.917 334.09 219.599 340.539 230.252 344.931C240.904 349.323 252.318 351.572 263.84 351.55V351.55Z" fill="white"/>
<path d="M406.62 153.69C398 153.529 389.788 149.99 383.753 143.834C377.718 137.677 374.342 129.397 374.352 120.776C374.363 112.154 377.759 103.882 383.809 97.7406C389.859 91.599 398.08 88.0794 406.7 87.9399C415.37 88.03 423.663 91.5014 429.812 97.6147C435.96 103.728 439.48 112 439.62 120.67C439.88 138.66 424.84 153.71 406.62 153.69Z" fill="white"/>
</svg>
